<svg xmlns="http://www.w3.org/2000/svg" xmlns:xlink="http://www.w3.org/1999/xlink" width="47" zoomAndPan="magnify" viewBox="0 0 35.25 30.000001" height="40" preserveAspectRatio="xMidYMid meet" version="1.0"><defs><clipPath id="id1"><path d="M 2.746094 0 L 31.777344 0 L 31.777344 29.03125 L 2.746094 29.03125 Z M 2.746094 0 " clip-rule="nonzero"/></clipPath></defs><g clip-path="url(#id1)"><path fill="#ffaa00" d="M 17.253906 2.617188 C 21.128906 2.617188 21.585938 2.628906 23.121094 2.699219 C 24.53125 2.765625 25.300781 3 25.816406 3.203125 C 26.492188 3.464844 26.976562 3.78125 27.484375 4.289062 C 27.992188 4.800781 28.304688 5.28125 28.570312 5.957031 C 28.769531 6.464844 29.003906 7.234375 29.074219 8.65625 C 29.144531 10.1875 29.15625 10.644531 29.15625 14.519531 C 29.15625 18.394531 29.144531 18.851562 29.074219 20.382812 C 29.011719 21.796875 28.777344 22.566406 28.570312 23.082031 C 28.3125 23.753906 27.992188 24.238281 27.484375 24.746094 C 26.976562 25.257812 26.492188 25.570312 25.816406 25.835938 C 25.308594 26.03125 24.539062 26.269531 23.121094 26.339844 C 21.585938 26.410156 21.128906 26.421875 17.253906 26.421875 C 13.382812 26.421875 12.921875 26.410156 11.390625 26.339844 C 9.980469 26.273438 9.207031 26.039062 8.695312 25.835938 C 8.019531 25.574219 7.535156 25.257812 7.027344 24.746094 C 6.519531 24.238281 6.207031 23.753906 5.9375 23.082031 C 5.742188 22.574219 5.507812 21.804688 5.4375 20.382812 C 5.367188 18.851562 5.355469 18.394531 5.355469 14.519531 C 5.355469 10.644531 5.367188 10.1875 5.4375 8.65625 C 5.5 7.242188 5.734375 6.472656 5.9375 5.957031 C 6.199219 5.28125 6.519531 4.800781 7.027344 4.289062 C 7.535156 3.78125 8.019531 3.46875 8.695312 3.203125 C 9.203125 3.003906 9.972656 2.769531 11.390625 2.699219 C 12.921875 2.628906 13.382812 2.617188 17.253906 2.617188 M 17.253906 0.00390625 C 13.3125 0.00390625 12.820312 0.0234375 11.269531 0.09375 C 9.722656 0.164062 8.667969 0.410156 7.746094 0.765625 C 6.792969 1.136719 5.984375 1.632812 5.175781 2.441406 C 4.375 3.246094 3.878906 4.054688 3.507812 5.007812 C 3.152344 5.933594 2.90625 6.988281 2.835938 8.535156 C 2.765625 10.078125 2.746094 10.574219 2.746094 14.511719 C 2.746094 18.457031 2.765625 18.945312 2.835938 20.5 C 2.90625 22.042969 3.152344 23.101562 3.507812 24.023438 C 3.878906 24.976562 4.375 25.785156 5.183594 26.59375 C 5.988281 27.402344 6.796875 27.898438 7.753906 28.265625 C 8.675781 28.621094 9.730469 28.871094 11.277344 28.941406 C 12.820312 29.011719 13.316406 29.027344 17.261719 29.027344 C 21.207031 29.027344 21.695312 29.011719 23.246094 28.941406 C 24.792969 28.871094 25.851562 28.621094 26.773438 28.265625 C 27.726562 27.898438 28.535156 27.402344 29.34375 26.59375 C 30.148438 25.785156 30.644531 24.976562 31.015625 24.023438 C 31.371094 23.101562 31.621094 22.042969 31.6875 20.5 C 31.757812 18.953125 31.777344 18.457031 31.777344 14.511719 C 31.777344 10.570312 31.757812 10.078125 31.6875 8.527344 C 31.621094 6.980469 31.371094 5.925781 31.015625 5.003906 C 30.644531 4.050781 30.148438 3.242188 29.34375 2.433594 C 28.535156 1.625 27.726562 1.128906 26.773438 0.761719 C 25.851562 0.402344 24.792969 0.15625 23.246094 0.0859375 C 21.695312 0.0234375 21.199219 0.00390625 17.253906 0.00390625 " fill-opacity="1" fill-rule="nonzero"/></g><path fill="#ffaa00" d="M 17.253906 7.0625 C 13.140625 7.0625 9.808594 10.398438 9.808594 14.511719 C 9.808594 18.628906 13.144531 21.96875 17.261719 21.96875 C 21.378906 21.96875 24.71875 18.636719 24.71875 14.511719 C 24.710938 10.398438 21.371094 7.0625 17.253906 7.0625 M 17.253906 19.355469 C 14.585938 19.355469 12.421875 17.191406 12.421875 14.519531 C 12.421875 11.847656 14.585938 9.683594 17.253906 9.683594 C 19.925781 9.683594 22.089844 11.847656 22.089844 14.519531 C 22.097656 17.183594 19.925781 19.355469 17.253906 19.355469 " fill-opacity="1" fill-rule="nonzero"/><path fill="#ffaa00" d="M 26.746094 6.769531 C 26.746094 7.730469 25.964844 8.515625 25.003906 8.515625 C 24.042969 8.515625 23.261719 7.730469 23.261719 6.769531 C 23.261719 5.8125 24.042969 5.027344 25.003906 5.027344 C 25.964844 5.027344 26.746094 5.804688 26.746094 6.769531 " fill-opacity="1" fill-rule="nonzero"/></svg>