<svg xmlns="http://www.w3.org/2000/svg" xmlns:xlink="http://www.w3.org/1999/xlink" width="47" zoomAndPan="magnify" viewBox="0 0 35.25 30.000001" height="40" preserveAspectRatio="xMidYMid meet" version="1.0"><defs><clipPath id="id1"><path d="M 3.109375 0.363281 L 31.414062 0.363281 L 31.414062 28.667969 L 3.109375 28.667969 Z M 3.109375 0.363281 " clip-rule="nonzero"/></clipPath></defs><g clip-path="url(#id1)"><path fill="#f5deb3" d="M 17.257812 2.914062 C 21.03125 2.914062 21.480469 2.925781 22.972656 2.996094 C 24.351562 3.058594 25.101562 3.289062 25.605469 3.484375 C 26.261719 3.738281 26.734375 4.050781 27.230469 4.546875 C 27.726562 5.042969 28.027344 5.515625 28.289062 6.171875 C 28.480469 6.667969 28.710938 7.417969 28.78125 8.800781 C 28.847656 10.296875 28.859375 10.742188 28.859375 14.519531 C 28.859375 18.296875 28.847656 18.742188 28.78125 20.238281 C 28.71875 21.613281 28.488281 22.363281 28.289062 22.867188 C 28.035156 23.523438 27.726562 23.996094 27.230469 24.492188 C 26.734375 24.988281 26.261719 25.292969 25.605469 25.554688 C 25.109375 25.746094 24.355469 25.972656 22.972656 26.042969 C 21.480469 26.109375 21.03125 26.125 17.257812 26.125 C 13.480469 26.125 13.03125 26.109375 11.539062 26.042969 C 10.160156 25.980469 9.410156 25.75 8.90625 25.554688 C 8.25 25.296875 7.777344 24.988281 7.28125 24.492188 C 6.785156 23.996094 6.484375 23.523438 6.222656 22.867188 C 6.03125 22.371094 5.800781 21.621094 5.730469 20.238281 C 5.664062 18.742188 5.652344 18.296875 5.652344 14.519531 C 5.652344 10.742188 5.664062 10.296875 5.730469 8.800781 C 5.792969 7.425781 6.023438 6.671875 6.222656 6.171875 C 6.476562 5.515625 6.785156 5.042969 7.28125 4.546875 C 7.777344 4.050781 8.25 3.746094 8.90625 3.484375 C 9.402344 3.292969 10.15625 3.0625 11.539062 2.996094 C 13.03125 2.925781 13.480469 2.914062 17.257812 2.914062 M 17.257812 0.367188 C 13.410156 0.367188 12.933594 0.382812 11.417969 0.453125 C 9.914062 0.519531 8.882812 0.761719 7.984375 1.109375 C 7.054688 1.46875 6.265625 1.953125 5.476562 2.742188 C 4.695312 3.527344 4.210938 4.316406 3.851562 5.246094 C 3.503906 6.144531 3.265625 7.175781 3.195312 8.683594 C 3.128906 10.191406 3.109375 10.675781 3.109375 14.511719 C 3.109375 18.359375 3.128906 18.835938 3.195312 20.347656 C 3.265625 21.855469 3.503906 22.886719 3.851562 23.785156 C 4.210938 24.714844 4.695312 25.503906 5.484375 26.289062 C 6.273438 27.078125 7.058594 27.5625 7.988281 27.921875 C 8.890625 28.269531 9.917969 28.511719 11.425781 28.578125 C 12.933594 28.648438 13.417969 28.667969 17.261719 28.667969 C 21.105469 28.667969 21.585938 28.648438 23.097656 28.578125 C 24.605469 28.511719 25.636719 28.269531 26.535156 27.921875 C 27.464844 27.5625 28.253906 27.078125 29.039062 26.289062 C 29.828125 25.503906 30.3125 24.714844 30.671875 23.785156 C 31.019531 22.886719 31.261719 21.855469 31.328125 20.347656 C 31.398438 18.84375 31.414062 18.359375 31.414062 14.511719 C 31.414062 10.667969 31.398438 10.191406 31.328125 8.675781 C 31.261719 7.167969 31.019531 6.140625 30.671875 5.242188 C 30.3125 4.3125 29.828125 3.523438 29.039062 2.734375 C 28.253906 1.949219 27.464844 1.464844 26.535156 1.105469 C 25.636719 0.757812 24.605469 0.515625 23.097656 0.445312 C 21.585938 0.382812 21.101562 0.367188 17.257812 0.367188 " fill-opacity="1" fill-rule="nonzero"/></g><path fill="#f5deb3" d="M 17.257812 7.25 C 13.242188 7.25 9.992188 10.5 9.992188 14.511719 C 9.992188 18.527344 13.25 21.78125 17.261719 21.78125 C 21.273438 21.78125 24.53125 18.53125 24.53125 14.511719 C 24.523438 10.5 21.269531 7.25 17.257812 7.25 M 17.257812 19.234375 C 14.652344 19.234375 12.542969 17.125 12.542969 14.519531 C 12.542969 11.914062 14.652344 9.804688 17.257812 9.804688 C 19.859375 9.804688 21.96875 11.914062 21.96875 14.519531 C 21.976562 17.117188 19.859375 19.234375 17.257812 19.234375 " fill-opacity="1" fill-rule="nonzero"/><path fill="#f5deb3" d="M 26.507812 6.964844 C 26.507812 7.902344 25.746094 8.664062 24.808594 8.664062 C 23.875 8.664062 23.109375 7.902344 23.109375 6.964844 C 23.109375 6.027344 23.875 5.265625 24.808594 5.265625 C 25.746094 5.265625 26.507812 6.023438 26.507812 6.964844 " fill-opacity="1" fill-rule="nonzero"/></svg>