<svg xmlns="http://www.w3.org/2000/svg" xmlns:xlink="http://www.w3.org/1999/xlink" width="47" zoomAndPan="magnify" viewBox="0 0 35.25 30.000001" height="40" preserveAspectRatio="xMidYMid meet" version="1.0"><defs><clipPath id="id1"><path d="M 0.207031 7 L 34 7 L 34 29 L 0.207031 29 Z M 0.207031 7 " clip-rule="nonzero"/></clipPath><clipPath id="id2"><path d="M 16 0.00390625 L 30 0.00390625 L 30 11 L 16 11 Z M 16 0.00390625 " clip-rule="nonzero"/></clipPath><clipPath id="id3"><path d="M 25 0.00390625 L 31 0.00390625 L 31 6 L 25 6 Z M 25 0.00390625 " clip-rule="nonzero"/></clipPath></defs><g clip-path="url(#id1)"><path fill="#ffaa00" d="M 17.980469 28.953125 C 10.6875 28.953125 4.6875 24.949219 3.71875 19.652344 L 3.300781 19.566406 C 3.089844 19.523438 2.898438 19.4375 2.722656 19.308594 C 2.269531 18.96875 1.882812 18.5625 1.5625 18.09375 C 1.246094 17.621094 1.015625 17.113281 0.867188 16.566406 C 0.722656 16.015625 0.667969 15.457031 0.710938 14.894531 C 0.753906 14.328125 0.886719 13.78125 1.113281 13.261719 C 1.339844 12.742188 1.644531 12.273438 2.027344 11.855469 C 2.414062 11.4375 2.855469 11.09375 3.355469 10.824219 C 3.855469 10.558594 4.386719 10.378906 4.945312 10.289062 C 5.507812 10.199219 6.066406 10.207031 6.625 10.308594 C 8.089844 9.324219 9.667969 8.578125 11.359375 8.074219 C 13.050781 7.570312 14.777344 7.332031 16.542969 7.355469 L 17.980469 7.355469 C 19.746094 7.332031 21.476562 7.570312 23.167969 8.074219 C 24.859375 8.578125 26.4375 9.320312 27.902344 10.308594 C 28.429688 10.214844 28.957031 10.203125 29.488281 10.277344 C 30.019531 10.355469 30.523438 10.511719 31.003906 10.746094 C 31.484375 10.984375 31.917969 11.289062 32.300781 11.664062 C 32.683594 12.035156 33 12.460938 33.246094 12.9375 C 33.496094 13.410156 33.664062 13.914062 33.75 14.441406 C 33.839844 14.96875 33.84375 15.5 33.761719 16.03125 C 33.679688 16.558594 33.519531 17.0625 33.277344 17.542969 C 33.039062 18.019531 32.726562 18.449219 32.347656 18.828125 C 31.882812 24.472656 25.617188 28.953125 17.980469 28.953125 Z M 4.234375 16.816406 L 5.316406 17.039062 C 5.640625 17.105469 5.90625 17.265625 6.121094 17.515625 C 6.335938 17.765625 6.453125 18.058594 6.46875 18.386719 C 6.65625 22.625 11.820312 26.074219 17.980469 26.074219 C 24.332031 26.074219 29.496094 22.519531 29.496094 18.15625 C 29.496094 17.675781 29.6875 17.289062 30.074219 17.003906 C 30.277344 16.847656 30.453125 16.664062 30.589844 16.445312 C 30.730469 16.230469 30.828125 15.996094 30.882812 15.742188 C 30.941406 15.492188 30.949219 15.238281 30.914062 14.984375 C 30.878906 14.726562 30.800781 14.484375 30.679688 14.257812 C 30.558594 14.03125 30.402344 13.832031 30.210938 13.660156 C 30.015625 13.488281 29.800781 13.355469 29.5625 13.261719 C 29.320312 13.167969 29.074219 13.121094 28.816406 13.117188 C 28.558594 13.113281 28.308594 13.152344 28.0625 13.238281 C 27.5625 13.410156 27.105469 13.332031 26.691406 13.003906 C 25.429688 12.074219 24.054688 11.371094 22.566406 10.898438 C 21.074219 10.421875 19.546875 10.203125 17.980469 10.234375 L 16.542969 10.234375 C 14.976562 10.203125 13.449219 10.421875 11.960938 10.898438 C 10.46875 11.371094 9.09375 12.074219 7.835938 13.003906 C 7.417969 13.332031 6.960938 13.410156 6.460938 13.234375 C 6.230469 13.152344 5.992188 13.113281 5.746094 13.113281 C 5.5 13.113281 5.261719 13.152344 5.027344 13.234375 C 4.796875 13.316406 4.585938 13.433594 4.394531 13.589844 C 4.199219 13.742188 4.039062 13.925781 3.910156 14.132812 C 3.78125 14.34375 3.691406 14.566406 3.636719 14.808594 C 3.582031 15.046875 3.570312 15.289062 3.601562 15.53125 C 3.628906 15.777344 3.699219 16.007812 3.808594 16.230469 C 3.917969 16.449219 4.058594 16.648438 4.234375 16.816406 Z M 4.234375 16.816406 " fill-opacity="1" fill-rule="nonzero"/></g><g clip-path="url(#id2)"><path fill="#ffaa00" d="M 17.980469 10.234375 C 17.886719 10.234375 17.792969 10.226562 17.699219 10.207031 C 17.511719 10.167969 17.339844 10.097656 17.179688 9.992188 C 17.019531 9.886719 16.890625 9.753906 16.78125 9.59375 C 16.675781 9.433594 16.605469 9.261719 16.570312 9.074219 C 16.53125 8.886719 16.53125 8.699219 16.570312 8.511719 L 18.007812 1.3125 C 18.046875 1.128906 18.117188 0.960938 18.21875 0.804688 C 18.320312 0.648438 18.449219 0.515625 18.601562 0.410156 C 18.757812 0.304688 18.925781 0.230469 19.105469 0.191406 C 19.289062 0.148438 19.472656 0.144531 19.65625 0.175781 L 28.292969 1.613281 C 28.480469 1.644531 28.65625 1.710938 28.816406 1.8125 C 28.980469 1.914062 29.117188 2.042969 29.226562 2.199219 C 29.339844 2.355469 29.414062 2.523438 29.457031 2.710938 C 29.5 2.894531 29.507812 3.082031 29.476562 3.273438 C 29.445312 3.460938 29.378906 3.636719 29.277344 3.796875 C 29.175781 3.960938 29.046875 4.097656 28.894531 4.207031 C 28.738281 4.316406 28.566406 4.394531 28.382812 4.4375 C 28.195312 4.480469 28.007812 4.488281 27.820312 4.457031 L 20.558594 3.246094 L 19.394531 9.078125 C 19.324219 9.414062 19.160156 9.691406 18.894531 9.910156 C 18.628906 10.125 18.324219 10.234375 17.980469 10.234375 Z M 17.980469 10.234375 " fill-opacity="1" fill-rule="nonzero"/></g><g clip-path="url(#id3)"><path fill="#ffaa00" d="M 30.9375 3.035156 C 30.9375 3.417969 30.863281 3.785156 30.71875 4.136719 C 30.570312 4.492188 30.363281 4.800781 30.09375 5.070312 C 29.824219 5.339844 29.511719 5.550781 29.160156 5.695312 C 28.804688 5.84375 28.4375 5.914062 28.058594 5.914062 C 27.675781 5.914062 27.308594 5.84375 26.957031 5.695312 C 26.601562 5.550781 26.292969 5.339844 26.023438 5.070312 C 25.75 4.800781 25.542969 4.492188 25.398438 4.136719 C 25.25 3.785156 25.179688 3.417969 25.179688 3.035156 C 25.179688 2.652344 25.25 2.285156 25.398438 1.933594 C 25.542969 1.582031 25.75 1.269531 26.023438 1 C 26.292969 0.730469 26.601562 0.519531 26.957031 0.375 C 27.308594 0.230469 27.675781 0.15625 28.058594 0.15625 C 28.4375 0.15625 28.804688 0.230469 29.160156 0.375 C 29.511719 0.519531 29.824219 0.730469 30.09375 1 C 30.363281 1.269531 30.570312 1.582031 30.71875 1.933594 C 30.863281 2.285156 30.9375 2.652344 30.9375 3.035156 Z M 30.9375 3.035156 " fill-opacity="1" fill-rule="nonzero"/></g><path fill="#ffaa00" d="M 14.382812 15.996094 C 14.382812 16.195312 14.3125 16.363281 14.171875 16.503906 C 14.03125 16.644531 13.863281 16.714844 13.664062 16.714844 C 13.464844 16.714844 13.296875 16.644531 13.15625 16.503906 C 13.015625 16.363281 12.945312 16.195312 12.945312 15.996094 C 12.945312 15.796875 13.015625 15.625 13.15625 15.484375 C 13.296875 15.34375 13.464844 15.273438 13.664062 15.273438 C 13.863281 15.273438 14.03125 15.34375 14.171875 15.484375 C 14.3125 15.625 14.382812 15.796875 14.382812 15.996094 Z M 14.382812 15.996094 " fill-opacity="1" fill-rule="nonzero"/><path fill="#ffaa00" d="M 13.664062 18.15625 C 13.378906 18.15625 13.101562 18.101562 12.835938 17.988281 C 12.574219 17.878906 12.339844 17.722656 12.136719 17.523438 C 11.933594 17.320312 11.777344 17.085938 11.667969 16.820312 C 11.558594 16.554688 11.503906 16.28125 11.503906 15.996094 C 11.503906 15.707031 11.558594 15.433594 11.667969 15.167969 C 11.777344 14.902344 11.933594 14.671875 12.136719 14.46875 C 12.339844 14.265625 12.574219 14.109375 12.835938 14 C 13.101562 13.890625 13.378906 13.835938 13.664062 13.835938 C 13.949219 13.835938 14.226562 13.890625 14.488281 14 C 14.753906 14.109375 14.988281 14.265625 15.191406 14.46875 C 15.394531 14.671875 15.546875 14.902344 15.660156 15.167969 C 15.769531 15.433594 15.824219 15.707031 15.824219 15.996094 C 15.824219 16.28125 15.769531 16.554688 15.660156 16.820312 C 15.546875 17.085938 15.394531 17.320312 15.191406 17.523438 C 14.988281 17.722656 14.753906 17.878906 14.488281 17.988281 C 14.226562 18.101562 13.949219 18.15625 13.664062 18.15625 Z M 13.664062 15.273438 C 13.464844 15.273438 13.296875 15.34375 13.15625 15.484375 C 13.015625 15.625 12.945312 15.796875 12.945312 15.996094 C 12.945312 16.195312 13.015625 16.363281 13.15625 16.503906 C 13.296875 16.644531 13.464844 16.714844 13.664062 16.714844 C 13.863281 16.714844 14.03125 16.644531 14.171875 16.503906 C 14.3125 16.363281 14.382812 16.195312 14.382812 15.996094 C 14.382812 15.796875 14.3125 15.625 14.171875 15.484375 C 14.03125 15.34375 13.863281 15.273438 13.664062 15.273438 Z M 13.664062 15.273438 " fill-opacity="1" fill-rule="nonzero"/><path fill="#ffaa00" d="M 23.019531 15.996094 C 23.019531 16.195312 22.949219 16.363281 22.808594 16.503906 C 22.667969 16.644531 22.5 16.714844 22.300781 16.714844 C 22.101562 16.714844 21.929688 16.644531 21.789062 16.503906 C 21.652344 16.363281 21.582031 16.195312 21.582031 15.996094 C 21.582031 15.796875 21.652344 15.625 21.789062 15.484375 C 21.929688 15.34375 22.101562 15.273438 22.300781 15.273438 C 22.5 15.273438 22.667969 15.34375 22.808594 15.484375 C 22.949219 15.625 23.019531 15.796875 23.019531 15.996094 Z M 23.019531 15.996094 " fill-opacity="1" fill-rule="nonzero"/><path fill="#ffaa00" d="M 22.300781 18.15625 C 22.011719 18.15625 21.738281 18.101562 21.472656 17.988281 C 21.210938 17.878906 20.976562 17.722656 20.773438 17.523438 C 20.570312 17.320312 20.414062 17.085938 20.304688 16.820312 C 20.195312 16.554688 20.140625 16.28125 20.140625 15.996094 C 20.140625 15.707031 20.195312 15.433594 20.304688 15.167969 C 20.414062 14.902344 20.570312 14.671875 20.773438 14.46875 C 20.976562 14.265625 21.210938 14.109375 21.472656 14 C 21.738281 13.890625 22.011719 13.835938 22.300781 13.835938 C 22.585938 13.835938 22.863281 13.890625 23.125 14 C 23.390625 14.109375 23.625 14.265625 23.828125 14.46875 C 24.027344 14.671875 24.183594 14.902344 24.292969 15.167969 C 24.402344 15.433594 24.457031 15.707031 24.457031 15.996094 C 24.457031 16.28125 24.402344 16.554688 24.292969 16.820312 C 24.183594 17.085938 24.027344 17.320312 23.828125 17.523438 C 23.625 17.722656 23.390625 17.878906 23.125 17.988281 C 22.863281 18.101562 22.585938 18.15625 22.300781 18.15625 Z M 22.300781 15.273438 C 22.101562 15.273438 21.929688 15.34375 21.789062 15.484375 C 21.652344 15.625 21.582031 15.796875 21.582031 15.996094 C 21.582031 16.195312 21.652344 16.363281 21.789062 16.503906 C 21.929688 16.644531 22.101562 16.714844 22.300781 16.714844 C 22.5 16.714844 22.667969 16.644531 22.808594 16.503906 C 22.949219 16.363281 23.019531 16.195312 23.019531 15.996094 C 23.019531 15.796875 22.949219 15.625 22.808594 15.484375 C 22.667969 15.34375 22.5 15.273438 22.300781 15.273438 Z M 22.300781 15.273438 " fill-opacity="1" fill-rule="nonzero"/><path fill="#ffaa00" d="M 17.980469 23.914062 C 16.738281 23.902344 15.566406 23.613281 14.460938 23.042969 C 14.285156 22.960938 14.136719 22.84375 14.007812 22.699219 C 13.878906 22.558594 13.78125 22.394531 13.71875 22.210938 C 13.65625 22.027344 13.632812 21.839844 13.644531 21.648438 C 13.660156 21.457031 13.707031 21.273438 13.792969 21.101562 C 13.878906 20.925781 13.996094 20.777344 14.144531 20.652344 C 14.289062 20.527344 14.453125 20.433594 14.636719 20.375 C 14.820312 20.3125 15.007812 20.292969 15.203125 20.308594 C 15.394531 20.324219 15.574219 20.378906 15.746094 20.464844 C 16.441406 20.847656 17.1875 21.039062 17.980469 21.039062 C 18.777344 21.039062 19.523438 20.847656 20.21875 20.464844 C 20.390625 20.378906 20.570312 20.324219 20.761719 20.308594 C 20.957031 20.292969 21.144531 20.3125 21.328125 20.375 C 21.511719 20.433594 21.675781 20.527344 21.820312 20.652344 C 21.96875 20.777344 22.085938 20.925781 22.171875 21.101562 C 22.257812 21.273438 22.304688 21.457031 22.320312 21.648438 C 22.332031 21.839844 22.304688 22.027344 22.242188 22.210938 C 22.179688 22.394531 22.085938 22.558594 21.957031 22.699219 C 21.828125 22.84375 21.679688 22.960938 21.503906 23.042969 C 20.398438 23.613281 19.226562 23.902344 17.980469 23.914062 Z M 17.980469 23.914062 " fill-opacity="1" fill-rule="nonzero"/></svg>