<svg xmlns="http://www.w3.org/2000/svg" xmlns:xlink="http://www.w3.org/1999/xlink" width="47" zoomAndPan="magnify" viewBox="0 0 35.25 30.000001" height="40" preserveAspectRatio="xMidYMid meet" version="1.0"><defs><clipPath id="id1"><path d="M 0.207031 7 L 34 7 L 34 29 L 0.207031 29 Z M 0.207031 7 " clip-rule="nonzero"/></clipPath></defs><g clip-path="url(#id1)"><path fill="#000000" d="M 17.980469 28.953125 C 10.6875 28.953125 4.6875 24.949219 3.71875 19.648438 L 3.300781 19.5625 C 3.089844 19.519531 2.898438 19.433594 2.722656 19.304688 C 2.269531 18.964844 1.882812 18.558594 1.5625 18.089844 C 1.246094 17.621094 1.015625 17.109375 0.867188 16.5625 C 0.722656 16.011719 0.667969 15.457031 0.710938 14.890625 C 0.753906 14.324219 0.886719 13.78125 1.113281 13.257812 C 1.339844 12.738281 1.644531 12.269531 2.027344 11.851562 C 2.414062 11.433594 2.855469 11.089844 3.355469 10.824219 C 3.855469 10.554688 4.386719 10.375 4.945312 10.289062 C 5.507812 10.199219 6.066406 10.203125 6.625 10.304688 C 8.089844 9.320312 9.667969 8.574219 11.359375 8.074219 C 13.050781 7.570312 14.777344 7.328125 16.542969 7.351562 L 17.980469 7.351562 C 19.746094 7.328125 21.476562 7.570312 23.167969 8.070312 C 24.859375 8.574219 26.4375 9.320312 27.902344 10.304688 C 28.429688 10.210938 28.957031 10.203125 29.488281 10.277344 C 30.019531 10.351562 30.523438 10.507812 31.003906 10.742188 C 31.484375 10.980469 31.917969 11.285156 32.300781 11.660156 C 32.683594 12.035156 33 12.457031 33.246094 12.933594 C 33.496094 13.410156 33.664062 13.910156 33.75 14.4375 C 33.839844 14.96875 33.84375 15.496094 33.761719 16.027344 C 33.679688 16.558594 33.519531 17.0625 33.277344 17.539062 C 33.039062 18.015625 32.726562 18.445312 32.347656 18.824219 C 31.882812 24.46875 25.617188 28.953125 17.980469 28.953125 Z M 4.234375 16.816406 L 5.316406 17.039062 C 5.640625 17.105469 5.90625 17.261719 6.121094 17.511719 C 6.335938 17.765625 6.453125 18.054688 6.46875 18.382812 C 6.65625 22.625 11.820312 26.070312 17.980469 26.070312 C 24.332031 26.070312 29.496094 22.519531 29.496094 18.152344 C 29.496094 17.671875 29.6875 17.289062 30.074219 17 C 30.277344 16.84375 30.453125 16.660156 30.589844 16.441406 C 30.730469 16.226562 30.828125 15.992188 30.882812 15.742188 C 30.941406 15.488281 30.949219 15.234375 30.914062 14.980469 C 30.878906 14.726562 30.800781 14.484375 30.679688 14.257812 C 30.558594 14.027344 30.402344 13.828125 30.210938 13.660156 C 30.015625 13.488281 29.800781 13.355469 29.5625 13.261719 C 29.320312 13.167969 29.074219 13.117188 28.816406 13.113281 C 28.558594 13.109375 28.308594 13.148438 28.0625 13.234375 C 27.5625 13.410156 27.105469 13.332031 26.691406 13 C 25.429688 12.070312 24.054688 11.367188 22.566406 10.894531 C 21.074219 10.421875 19.546875 10.199219 17.980469 10.230469 L 16.542969 10.230469 C 14.976562 10.199219 13.449219 10.421875 11.960938 10.894531 C 10.46875 11.367188 9.09375 12.070312 7.835938 13 C 7.417969 13.332031 6.960938 13.410156 6.460938 13.234375 C 6.230469 13.152344 5.992188 13.109375 5.746094 13.109375 C 5.5 13.109375 5.261719 13.152344 5.027344 13.234375 C 4.796875 13.316406 4.585938 13.433594 4.394531 13.585938 C 4.199219 13.742188 4.039062 13.921875 3.910156 14.128906 C 3.78125 14.339844 3.691406 14.5625 3.636719 14.804688 C 3.582031 15.042969 3.570312 15.285156 3.601562 15.53125 C 3.628906 15.773438 3.699219 16.007812 3.808594 16.226562 C 3.917969 16.449219 4.058594 16.644531 4.234375 16.816406 Z M 4.234375 16.816406 " fill-opacity="1" fill-rule="nonzero"/></g><path fill="#000000" d="M 17.980469 10.230469 C 17.886719 10.230469 17.792969 10.222656 17.699219 10.203125 C 17.511719 10.167969 17.339844 10.09375 17.179688 9.988281 C 17.019531 9.882812 16.890625 9.75 16.78125 9.589844 C 16.675781 9.433594 16.605469 9.257812 16.570312 9.070312 C 16.53125 8.882812 16.53125 8.695312 16.570312 8.507812 L 18.007812 1.308594 C 18.046875 1.125 18.117188 0.957031 18.21875 0.800781 C 18.320312 0.644531 18.449219 0.515625 18.601562 0.40625 C 18.757812 0.300781 18.925781 0.226562 19.105469 0.1875 C 19.289062 0.148438 19.472656 0.140625 19.65625 0.171875 L 28.292969 1.613281 C 28.480469 1.644531 28.65625 1.710938 28.816406 1.8125 C 28.980469 1.910156 29.117188 2.039062 29.226562 2.195312 C 29.339844 2.351562 29.414062 2.523438 29.457031 2.707031 C 29.5 2.894531 29.507812 3.082031 29.476562 3.269531 C 29.445312 3.457031 29.378906 3.632812 29.277344 3.792969 C 29.175781 3.957031 29.046875 4.09375 28.894531 4.203125 C 28.738281 4.316406 28.566406 4.390625 28.382812 4.433594 C 28.195312 4.480469 28.007812 4.484375 27.820312 4.453125 L 20.558594 3.242188 L 19.394531 9.074219 C 19.324219 9.410156 19.160156 9.6875 18.894531 9.90625 C 18.628906 10.125 18.324219 10.230469 17.980469 10.230469 Z M 17.980469 10.230469 " fill-opacity="1" fill-rule="nonzero"/><path fill="#000000" d="M 30.9375 3.03125 C 30.9375 3.414062 30.863281 3.78125 30.71875 4.136719 C 30.570312 4.488281 30.363281 4.800781 30.09375 5.070312 C 29.824219 5.339844 29.511719 5.546875 29.160156 5.695312 C 28.804688 5.839844 28.4375 5.914062 28.058594 5.914062 C 27.675781 5.914062 27.308594 5.839844 26.957031 5.695312 C 26.601562 5.546875 26.292969 5.339844 26.023438 5.070312 C 25.75 4.800781 25.542969 4.488281 25.398438 4.136719 C 25.25 3.78125 25.179688 3.414062 25.179688 3.03125 C 25.179688 2.652344 25.25 2.285156 25.398438 1.929688 C 25.542969 1.578125 25.75 1.265625 26.023438 0.996094 C 26.292969 0.726562 26.601562 0.519531 26.957031 0.371094 C 27.308594 0.226562 27.675781 0.152344 28.058594 0.152344 C 28.4375 0.152344 28.804688 0.226562 29.160156 0.371094 C 29.511719 0.519531 29.824219 0.726562 30.09375 0.996094 C 30.363281 1.265625 30.570312 1.578125 30.71875 1.929688 C 30.863281 2.285156 30.9375 2.652344 30.9375 3.03125 Z M 30.9375 3.03125 " fill-opacity="1" fill-rule="nonzero"/><path fill="#000000" d="M 14.382812 15.992188 C 14.382812 16.191406 14.3125 16.359375 14.171875 16.5 C 14.03125 16.640625 13.863281 16.710938 13.664062 16.710938 C 13.464844 16.710938 13.296875 16.640625 13.15625 16.5 C 13.015625 16.359375 12.945312 16.191406 12.945312 15.992188 C 12.945312 15.792969 13.015625 15.625 13.15625 15.484375 C 13.296875 15.34375 13.464844 15.273438 13.664062 15.273438 C 13.863281 15.273438 14.03125 15.34375 14.171875 15.484375 C 14.3125 15.625 14.382812 15.792969 14.382812 15.992188 Z M 14.382812 15.992188 " fill-opacity="1" fill-rule="nonzero"/><path fill="#000000" d="M 13.664062 18.152344 C 13.378906 18.152344 13.101562 18.097656 12.835938 17.988281 C 12.574219 17.878906 12.339844 17.722656 12.136719 17.519531 C 11.933594 17.316406 11.777344 17.082031 11.667969 16.820312 C 11.558594 16.554688 11.503906 16.277344 11.503906 15.992188 C 11.503906 15.707031 11.558594 15.429688 11.667969 15.164062 C 11.777344 14.902344 11.933594 14.667969 12.136719 14.464844 C 12.339844 14.261719 12.574219 14.105469 12.835938 13.996094 C 13.101562 13.886719 13.378906 13.832031 13.664062 13.832031 C 13.949219 13.832031 14.226562 13.886719 14.488281 13.996094 C 14.753906 14.105469 14.988281 14.261719 15.191406 14.464844 C 15.394531 14.667969 15.546875 14.902344 15.660156 15.164062 C 15.769531 15.429688 15.824219 15.707031 15.824219 15.992188 C 15.824219 16.277344 15.769531 16.554688 15.660156 16.820312 C 15.546875 17.082031 15.394531 17.316406 15.191406 17.519531 C 14.988281 17.722656 14.753906 17.878906 14.488281 17.988281 C 14.226562 18.097656 13.949219 18.152344 13.664062 18.152344 Z M 13.664062 15.273438 C 13.464844 15.273438 13.296875 15.34375 13.15625 15.484375 C 13.015625 15.625 12.945312 15.792969 12.945312 15.992188 C 12.945312 16.191406 13.015625 16.359375 13.15625 16.5 C 13.296875 16.640625 13.464844 16.710938 13.664062 16.710938 C 13.863281 16.710938 14.03125 16.640625 14.171875 16.5 C 14.3125 16.359375 14.382812 16.191406 14.382812 15.992188 C 14.382812 15.792969 14.3125 15.625 14.171875 15.484375 C 14.03125 15.34375 13.863281 15.273438 13.664062 15.273438 Z M 13.664062 15.273438 " fill-opacity="1" fill-rule="nonzero"/><path fill="#000000" d="M 23.019531 15.992188 C 23.019531 16.191406 22.949219 16.359375 22.808594 16.5 C 22.667969 16.640625 22.5 16.710938 22.300781 16.710938 C 22.101562 16.710938 21.929688 16.640625 21.789062 16.5 C 21.652344 16.359375 21.582031 16.191406 21.582031 15.992188 C 21.582031 15.792969 21.652344 15.625 21.789062 15.484375 C 21.929688 15.34375 22.101562 15.273438 22.300781 15.273438 C 22.5 15.273438 22.667969 15.34375 22.808594 15.484375 C 22.949219 15.625 23.019531 15.792969 23.019531 15.992188 Z M 23.019531 15.992188 " fill-opacity="1" fill-rule="nonzero"/><path fill="#000000" d="M 22.300781 18.152344 C 22.011719 18.152344 21.738281 18.097656 21.472656 17.988281 C 21.210938 17.878906 20.976562 17.722656 20.773438 17.519531 C 20.570312 17.316406 20.414062 17.082031 20.304688 16.820312 C 20.195312 16.554688 20.140625 16.277344 20.140625 15.992188 C 20.140625 15.707031 20.195312 15.429688 20.304688 15.164062 C 20.414062 14.902344 20.570312 14.667969 20.773438 14.464844 C 20.976562 14.261719 21.210938 14.105469 21.472656 13.996094 C 21.738281 13.886719 22.011719 13.832031 22.300781 13.832031 C 22.585938 13.832031 22.863281 13.886719 23.125 13.996094 C 23.390625 14.105469 23.625 14.261719 23.828125 14.464844 C 24.027344 14.667969 24.183594 14.902344 24.292969 15.164062 C 24.402344 15.429688 24.457031 15.707031 24.457031 15.992188 C 24.457031 16.277344 24.402344 16.554688 24.292969 16.820312 C 24.183594 17.082031 24.027344 17.316406 23.828125 17.519531 C 23.625 17.722656 23.390625 17.878906 23.125 17.988281 C 22.863281 18.097656 22.585938 18.152344 22.300781 18.152344 Z M 22.300781 15.273438 C 22.101562 15.273438 21.929688 15.34375 21.789062 15.484375 C 21.652344 15.625 21.582031 15.792969 21.582031 15.992188 C 21.582031 16.191406 21.652344 16.359375 21.789062 16.5 C 21.929688 16.640625 22.101562 16.710938 22.300781 16.710938 C 22.5 16.710938 22.667969 16.640625 22.808594 16.5 C 22.949219 16.359375 23.019531 16.191406 23.019531 15.992188 C 23.019531 15.792969 22.949219 15.625 22.808594 15.484375 C 22.667969 15.34375 22.5 15.273438 22.300781 15.273438 Z M 22.300781 15.273438 " fill-opacity="1" fill-rule="nonzero"/><path fill="#000000" d="M 17.980469 23.910156 C 16.738281 23.898438 15.566406 23.609375 14.460938 23.039062 C 14.285156 22.957031 14.136719 22.84375 14.007812 22.699219 C 13.878906 22.554688 13.78125 22.390625 13.71875 22.207031 C 13.65625 22.027344 13.632812 21.839844 13.644531 21.644531 C 13.660156 21.453125 13.707031 21.269531 13.792969 21.097656 C 13.878906 20.925781 13.996094 20.777344 14.144531 20.648438 C 14.289062 20.523438 14.453125 20.429688 14.636719 20.371094 C 14.820312 20.3125 15.007812 20.289062 15.203125 20.304688 C 15.394531 20.320312 15.574219 20.375 15.746094 20.464844 C 16.441406 20.847656 17.1875 21.039062 17.980469 21.039062 C 18.777344 21.039062 19.523438 20.847656 20.21875 20.464844 C 20.390625 20.375 20.570312 20.320312 20.761719 20.304688 C 20.957031 20.289062 21.144531 20.3125 21.328125 20.371094 C 21.511719 20.429688 21.675781 20.523438 21.820312 20.648438 C 21.96875 20.777344 22.085938 20.925781 22.171875 21.097656 C 22.257812 21.269531 22.304688 21.453125 22.320312 21.644531 C 22.332031 21.839844 22.304688 22.027344 22.242188 22.207031 C 22.179688 22.390625 22.085938 22.554688 21.957031 22.699219 C 21.828125 22.84375 21.679688 22.957031 21.503906 23.039062 C 20.398438 23.609375 19.226562 23.898438 17.980469 23.910156 Z M 17.980469 23.910156 " fill-opacity="1" fill-rule="nonzero"/></svg>