<svg xmlns="http://www.w3.org/2000/svg" xmlns:xlink="http://www.w3.org/1999/xlink" width="47" zoomAndPan="magnify" viewBox="0 0 35.25 30.000001" height="40" preserveAspectRatio="xMidYMid meet" version="1.0"><path fill="#ffaa00" d="M 16.953125 0 C 16.335938 0 15.726562 0.0390625 15.113281 0.117188 C 14.503906 0.195312 13.902344 0.316406 13.308594 0.472656 C 12.714844 0.632812 12.128906 0.828125 11.5625 1.0625 C 10.992188 1.300781 10.441406 1.570312 9.90625 1.878906 C 9.371094 2.183594 8.859375 2.523438 8.367188 2.898438 C 7.878906 3.273438 7.414062 3.679688 6.976562 4.113281 C 6.539062 4.550781 6.128906 5.011719 5.75 5.5 C 5.375 5.988281 5.027344 6.5 4.714844 7.035156 C 4.402344 7.566406 4.125 8.121094 3.886719 8.691406 C 3.644531 9.261719 3.441406 9.84375 3.277344 10.441406 C 3.109375 11.039062 2.984375 11.644531 2.898438 12.257812 C 2.808594 12.871094 2.761719 13.488281 2.753906 14.105469 C 2.746094 14.726562 2.777344 15.34375 2.851562 15.960938 C 2.921875 16.574219 3.035156 17.183594 3.183594 17.785156 C 3.335938 18.386719 3.523438 18.972656 3.75 19.550781 C 3.976562 20.125 4.242188 20.6875 4.539062 21.226562 L 2.789062 27.398438 C 2.6875 27.757812 2.769531 28.070312 3.03125 28.332031 C 3.292969 28.597656 3.601562 28.679688 3.960938 28.578125 L 10.085938 26.8125 C 10.554688 27.078125 11.042969 27.3125 11.542969 27.519531 C 12.039062 27.726562 12.550781 27.90625 13.070312 28.054688 C 13.585938 28.203125 14.113281 28.324219 14.644531 28.410156 C 15.179688 28.5 15.714844 28.558594 16.253906 28.585938 C 16.792969 28.613281 17.332031 28.609375 17.871094 28.574219 C 18.410156 28.539062 18.945312 28.472656 19.476562 28.375 C 20.007812 28.277344 20.53125 28.152344 21.046875 27.996094 C 21.566406 27.839844 22.070312 27.652344 22.566406 27.4375 C 23.0625 27.222656 23.546875 26.980469 24.015625 26.710938 C 24.484375 26.4375 24.933594 26.140625 25.367188 25.820312 C 25.804688 25.496094 26.21875 25.152344 26.613281 24.78125 C 27.011719 24.410156 27.382812 24.019531 27.734375 23.605469 C 28.085938 23.195312 28.414062 22.761719 28.714844 22.3125 C 29.019531 21.859375 29.292969 21.394531 29.542969 20.910156 C 29.792969 20.429688 30.015625 19.933594 30.207031 19.425781 C 30.402344 18.917969 30.566406 18.402344 30.699219 17.875 C 30.835938 17.347656 30.941406 16.816406 31.015625 16.277344 C 31.089844 15.738281 31.132812 15.195312 31.148438 14.652344 C 31.160156 14.109375 31.144531 13.566406 31.09375 13.023438 C 31.046875 12.484375 30.96875 11.945312 30.859375 11.414062 C 30.75 10.878906 30.609375 10.355469 30.441406 9.839844 C 30.273438 9.320312 30.078125 8.816406 29.851562 8.324219 C 29.625 7.828125 29.371094 7.347656 29.09375 6.882812 C 28.8125 6.417969 28.507812 5.972656 28.175781 5.542969 C 27.847656 5.113281 27.492188 4.703125 27.113281 4.3125 C 26.738281 3.921875 26.339844 3.558594 25.921875 3.214844 C 25.503906 2.871094 25.066406 2.550781 24.613281 2.257812 C 24.15625 1.964844 23.6875 1.699219 23.203125 1.457031 C 22.71875 1.21875 22.222656 1.007812 21.710938 0.828125 C 21.203125 0.644531 20.6875 0.492188 20.160156 0.367188 C 19.636719 0.246094 19.105469 0.152344 18.566406 0.09375 C 18.03125 0.03125 17.492188 0 16.953125 0 Z M 16.953125 26.707031 C 14.707031 26.703125 12.621094 26.121094 10.691406 24.964844 C 10.457031 24.828125 10.210938 24.796875 9.949219 24.871094 L 5.078125 26.273438 L 6.46875 21.363281 C 6.542969 21.101562 6.511719 20.851562 6.375 20.617188 C 6.148438 20.226562 5.941406 19.828125 5.757812 19.414062 C 5.570312 19.003906 5.410156 18.582031 5.269531 18.152344 C 5.132812 17.722656 5.015625 17.285156 4.925781 16.84375 C 4.835938 16.402344 4.765625 15.957031 4.722656 15.507812 C 4.679688 15.054688 4.660156 14.605469 4.667969 14.152344 C 4.671875 13.703125 4.703125 13.25 4.757812 12.804688 C 4.8125 12.355469 4.890625 11.910156 4.996094 11.472656 C 5.097656 11.03125 5.226562 10.597656 5.375 10.171875 C 5.523438 9.746094 5.699219 9.332031 5.894531 8.921875 C 6.089844 8.515625 6.304688 8.121094 6.542969 7.738281 C 6.78125 7.355469 7.039062 6.988281 7.316406 6.632812 C 7.59375 6.277344 7.890625 5.941406 8.207031 5.617188 C 8.523438 5.296875 8.851562 4.992188 9.199219 4.707031 C 9.546875 4.421875 9.910156 4.15625 10.289062 3.910156 C 10.664062 3.667969 11.054688 3.441406 11.453125 3.238281 C 11.855469 3.039062 12.265625 2.859375 12.6875 2.699219 C 13.105469 2.542969 13.535156 2.410156 13.96875 2.300781 C 14.402344 2.191406 14.84375 2.105469 15.289062 2.042969 C 15.730469 1.980469 16.179688 1.945312 16.628906 1.929688 C 17.074219 1.917969 17.523438 1.929688 17.96875 1.96875 C 18.417969 2.003906 18.859375 2.066406 19.300781 2.152344 C 19.742188 2.238281 20.175781 2.347656 20.605469 2.480469 C 21.03125 2.617188 21.453125 2.773438 21.863281 2.953125 C 22.273438 3.132812 22.675781 3.335938 23.066406 3.558594 C 23.453125 3.785156 23.832031 4.027344 24.191406 4.292969 C 24.554688 4.558594 24.902344 4.84375 25.234375 5.148438 C 25.566406 5.453125 25.882812 5.773438 26.179688 6.113281 C 26.476562 6.449219 26.753906 6.804688 27.011719 7.171875 C 27.269531 7.542969 27.507812 7.925781 27.726562 8.320312 C 27.941406 8.714844 28.136719 9.121094 28.308594 9.539062 C 28.484375 9.957031 28.632812 10.382812 28.757812 10.816406 C 28.886719 11.25 28.988281 11.6875 29.066406 12.132812 C 29.148438 12.578125 29.203125 13.023438 29.230469 13.476562 C 29.261719 13.925781 29.269531 14.378906 29.25 14.828125 C 29.230469 15.28125 29.1875 15.730469 29.121094 16.175781 C 29.054688 16.625 28.960938 17.066406 28.847656 17.5 C 28.730469 17.9375 28.59375 18.367188 28.429688 18.789062 C 28.269531 19.210938 28.085938 19.621094 27.878906 20.023438 C 27.671875 20.421875 27.445312 20.8125 27.195312 21.1875 C 26.945312 21.5625 26.679688 21.925781 26.390625 22.273438 C 26.101562 22.617188 25.796875 22.949219 25.472656 23.261719 C 25.148438 23.574219 24.808594 23.867188 24.453125 24.140625 C 24.097656 24.417969 23.730469 24.671875 23.34375 24.90625 C 22.960938 25.140625 22.566406 25.355469 22.160156 25.546875 C 21.753906 25.734375 21.339844 25.902344 20.914062 26.050781 C 20.488281 26.195312 20.058594 26.316406 19.621094 26.414062 C 19.183594 26.511719 18.742188 26.585938 18.292969 26.632812 C 17.847656 26.683594 17.402344 26.707031 16.953125 26.707031 Z M 16.953125 26.707031 " fill-opacity="1" fill-rule="nonzero"/><path fill="#ffaa00" d="M 24.800781 17.585938 C 24.773438 17.558594 21.449219 15.09375 20.324219 15.289062 C 19.757812 15.390625 19.449219 15.761719 18.9375 16.375 C 18.851562 16.480469 18.777344 16.5625 18.714844 16.640625 C 18.550781 16.578125 18.351562 16.492188 18.121094 16.382812 C 16.671875 15.671875 15.597656 14.585938 14.894531 13.128906 C 14.78125 12.898438 14.699219 12.695312 14.636719 12.53125 C 14.714844 12.464844 14.800781 12.390625 14.902344 12.304688 C 15.511719 11.792969 15.875 11.480469 15.976562 10.910156 C 16.171875 9.78125 13.722656 6.425781 13.699219 6.398438 C 13.394531 5.980469 12.984375 5.757812 12.46875 5.730469 C 11.292969 5.730469 8.441406 9.382812 8.441406 10.234375 C 8.441406 10.382812 8.492188 13.925781 12.878906 18.429688 C 17.332031 22.835938 20.847656 22.890625 20.996094 22.890625 C 21.84375 22.890625 25.472656 20.011719 25.472656 18.828125 C 25.445312 18.304688 25.222656 17.890625 24.800781 17.585938 Z M 20.851562 20.964844 C 20.1875 20.878906 17.519531 20.347656 14.214844 17.078125 C 10.945312 13.722656 10.421875 11.023438 10.34375 10.378906 C 10.957031 9.46875 11.644531 8.625 12.417969 7.851562 C 13.011719 8.71875 13.542969 9.621094 14.019531 10.558594 C 13.914062 10.65625 13.78125 10.765625 13.6875 10.847656 C 13.359375 11.097656 13.0625 11.382812 12.796875 11.699219 L 12.566406 12.023438 L 12.636719 12.417969 C 12.757812 12.957031 12.941406 13.472656 13.191406 13.964844 C 14.089844 15.816406 15.457031 17.195312 17.296875 18.101562 C 17.785156 18.351562 18.296875 18.539062 18.832031 18.660156 L 19.222656 18.730469 L 19.542969 18.5 C 19.859375 18.230469 20.144531 17.933594 20.390625 17.601562 C 20.476562 17.5 20.582031 17.371094 20.675781 17.269531 C 21.609375 17.746094 22.503906 18.28125 23.367188 18.878906 C 22.59375 19.65625 21.757812 20.347656 20.851562 20.964844 Z M 20.851562 20.964844 " fill-opacity="1" fill-rule="nonzero"/></svg>