<svg xmlns="http://www.w3.org/2000/svg" xmlns:xlink="http://www.w3.org/1999/xlink" width="47" zoomAndPan="magnify" viewBox="0 0 35.25 30.000001" height="40" preserveAspectRatio="xMidYMid meet" version="1.0"><path fill="#f5deb3" d="M 16.921875 0 C 16.304688 0 15.691406 0.0390625 15.082031 0.117188 C 14.472656 0.195312 13.871094 0.316406 13.277344 0.472656 C 12.679688 0.632812 12.101562 0.828125 11.53125 1.0625 C 10.960938 1.300781 10.410156 1.570312 9.875 1.878906 C 9.339844 2.183594 8.828125 2.523438 8.339844 2.898438 C 7.847656 3.273438 7.382812 3.679688 6.945312 4.113281 C 6.507812 4.550781 6.101562 5.011719 5.722656 5.5 C 5.34375 5.988281 5 6.5 4.6875 7.035156 C 4.375 7.566406 4.097656 8.121094 3.855469 8.691406 C 3.617188 9.261719 3.414062 9.84375 3.246094 10.441406 C 3.082031 11.039062 2.957031 11.644531 2.867188 12.257812 C 2.78125 12.871094 2.734375 13.488281 2.726562 14.105469 C 2.71875 14.726562 2.75 15.34375 2.824219 15.960938 C 2.894531 16.574219 3.007812 17.183594 3.15625 17.785156 C 3.308594 18.386719 3.496094 18.972656 3.722656 19.550781 C 3.949219 20.125 4.210938 20.6875 4.511719 21.226562 L 2.761719 27.398438 C 2.660156 27.757812 2.742188 28.070312 3.003906 28.332031 C 3.265625 28.597656 3.574219 28.679688 3.929688 28.578125 L 10.054688 26.8125 C 10.527344 27.078125 11.011719 27.3125 11.511719 27.519531 C 12.007812 27.726562 12.519531 27.90625 13.035156 28.054688 C 13.554688 28.203125 14.082031 28.324219 14.613281 28.410156 C 15.148438 28.5 15.683594 28.558594 16.222656 28.585938 C 16.761719 28.613281 17.300781 28.609375 17.839844 28.574219 C 18.375 28.539062 18.910156 28.472656 19.441406 28.375 C 19.972656 28.277344 20.496094 28.152344 21.015625 27.996094 C 21.53125 27.839844 22.039062 27.652344 22.53125 27.4375 C 23.027344 27.222656 23.511719 26.980469 23.980469 26.710938 C 24.449219 26.4375 24.898438 26.140625 25.332031 25.820312 C 25.769531 25.496094 26.183594 25.152344 26.578125 24.78125 C 26.972656 24.410156 27.347656 24.019531 27.699219 23.605469 C 28.050781 23.195312 28.375 22.761719 28.679688 22.3125 C 28.980469 21.859375 29.257812 21.394531 29.507812 20.910156 C 29.757812 20.429688 29.976562 19.933594 30.171875 19.425781 C 30.363281 18.917969 30.527344 18.402344 30.664062 17.875 C 30.796875 17.347656 30.902344 16.816406 30.976562 16.277344 C 31.050781 15.738281 31.097656 15.195312 31.109375 14.652344 C 31.121094 14.109375 31.105469 13.566406 31.058594 13.023438 C 31.007812 12.484375 30.929688 11.945312 30.820312 11.414062 C 30.710938 10.878906 30.574219 10.355469 30.40625 9.839844 C 30.238281 9.320312 30.039062 8.816406 29.816406 8.324219 C 29.589844 7.828125 29.335938 7.347656 29.054688 6.882812 C 28.777344 6.417969 28.472656 5.972656 28.140625 5.542969 C 27.808594 5.113281 27.457031 4.703125 27.078125 4.3125 C 26.703125 3.921875 26.304688 3.558594 25.886719 3.214844 C 25.46875 2.871094 25.03125 2.550781 24.578125 2.257812 C 24.121094 1.964844 23.652344 1.699219 23.167969 1.457031 C 22.683594 1.21875 22.1875 1.007812 21.679688 0.828125 C 21.171875 0.644531 20.652344 0.492188 20.128906 0.367188 C 19.601562 0.246094 19.070312 0.152344 18.535156 0.09375 C 17.996094 0.03125 17.460938 0 16.921875 0 Z M 16.921875 26.707031 C 14.675781 26.703125 12.589844 26.121094 10.660156 24.964844 C 10.425781 24.828125 10.179688 24.796875 9.917969 24.871094 L 5.050781 26.273438 L 6.441406 21.363281 C 6.515625 21.101562 6.484375 20.851562 6.34375 20.617188 C 6.117188 20.226562 5.910156 19.828125 5.726562 19.414062 C 5.542969 19.003906 5.378906 18.582031 5.242188 18.152344 C 5.101562 17.722656 4.988281 17.285156 4.898438 16.84375 C 4.804688 16.402344 4.738281 15.957031 4.695312 15.507812 C 4.652344 15.054688 4.632812 14.605469 4.640625 14.152344 C 4.644531 13.703125 4.675781 13.25 4.730469 12.804688 C 4.785156 12.355469 4.863281 11.910156 4.964844 11.472656 C 5.070312 11.03125 5.195312 10.597656 5.347656 10.171875 C 5.496094 9.746094 5.667969 9.332031 5.863281 8.921875 C 6.058594 8.515625 6.273438 8.121094 6.511719 7.738281 C 6.75 7.355469 7.007812 6.988281 7.289062 6.632812 C 7.566406 6.277344 7.863281 5.941406 8.175781 5.617188 C 8.492188 5.296875 8.824219 4.992188 9.171875 4.707031 C 9.519531 4.421875 9.878906 4.15625 10.257812 3.910156 C 10.632812 3.667969 11.023438 3.441406 11.421875 3.238281 C 11.824219 3.039062 12.234375 2.859375 12.65625 2.699219 C 13.074219 2.542969 13.503906 2.410156 13.9375 2.300781 C 14.371094 2.191406 14.8125 2.105469 15.257812 2.042969 C 15.699219 1.980469 16.144531 1.945312 16.59375 1.929688 C 17.042969 1.917969 17.488281 1.929688 17.9375 1.96875 C 18.382812 2.003906 18.828125 2.066406 19.265625 2.152344 C 19.707031 2.238281 20.140625 2.347656 20.570312 2.480469 C 21 2.617188 21.417969 2.773438 21.828125 2.953125 C 22.242188 3.132812 22.640625 3.335938 23.03125 3.558594 C 23.417969 3.785156 23.796875 4.027344 24.15625 4.292969 C 24.519531 4.558594 24.867188 4.84375 25.199219 5.148438 C 25.53125 5.453125 25.847656 5.773438 26.144531 6.113281 C 26.441406 6.449219 26.71875 6.804688 26.976562 7.171875 C 27.234375 7.542969 27.472656 7.925781 27.6875 8.320312 C 27.90625 8.714844 28.101562 9.121094 28.273438 9.539062 C 28.445312 9.957031 28.597656 10.382812 28.722656 10.816406 C 28.851562 11.25 28.953125 11.6875 29.03125 12.132812 C 29.109375 12.578125 29.164062 13.023438 29.195312 13.476562 C 29.226562 13.925781 29.230469 14.378906 29.214844 14.828125 C 29.195312 15.28125 29.152344 15.730469 29.085938 16.175781 C 29.019531 16.625 28.925781 17.066406 28.8125 17.5 C 28.695312 17.9375 28.558594 18.367188 28.394531 18.789062 C 28.234375 19.210938 28.050781 19.621094 27.84375 20.023438 C 27.636719 20.421875 27.410156 20.8125 27.160156 21.1875 C 26.910156 21.5625 26.644531 21.925781 26.355469 22.273438 C 26.066406 22.617188 25.761719 22.949219 25.4375 23.261719 C 25.113281 23.574219 24.773438 23.867188 24.417969 24.140625 C 24.0625 24.417969 23.695312 24.671875 23.3125 24.90625 C 22.925781 25.140625 22.53125 25.355469 22.125 25.546875 C 21.71875 25.734375 21.304688 25.902344 20.878906 26.050781 C 20.457031 26.195312 20.023438 26.316406 19.585938 26.414062 C 19.148438 26.511719 18.707031 26.585938 18.261719 26.632812 C 17.816406 26.683594 17.367188 26.707031 16.921875 26.707031 Z M 16.921875 26.707031 " fill-opacity="1" fill-rule="nonzero"/><path fill="#f5deb3" d="M 24.765625 17.585938 C 24.738281 17.558594 21.417969 15.09375 20.292969 15.289062 C 19.722656 15.390625 19.417969 15.761719 18.90625 16.375 C 18.816406 16.480469 18.742188 16.5625 18.679688 16.640625 C 18.519531 16.578125 18.316406 16.492188 18.089844 16.382812 C 16.640625 15.671875 15.566406 14.585938 14.859375 13.128906 C 14.75 12.898438 14.667969 12.695312 14.605469 12.53125 C 14.679688 12.464844 14.769531 12.390625 14.871094 12.304688 C 15.476562 11.792969 15.84375 11.480469 15.945312 10.910156 C 16.140625 9.78125 13.691406 6.425781 13.667969 6.398438 C 13.363281 5.980469 12.953125 5.757812 12.4375 5.730469 C 11.265625 5.730469 8.410156 9.382812 8.410156 10.234375 C 8.410156 10.382812 8.460938 13.925781 12.847656 18.429688 C 17.296875 22.835938 20.816406 22.890625 20.960938 22.890625 C 21.808594 22.890625 25.4375 20.011719 25.4375 18.828125 C 25.410156 18.304688 25.1875 17.890625 24.765625 17.585938 Z M 20.820312 20.964844 C 20.152344 20.878906 17.484375 20.347656 14.183594 17.078125 C 10.914062 13.722656 10.390625 11.023438 10.316406 10.378906 C 10.925781 9.46875 11.613281 8.625 12.386719 7.851562 C 12.980469 8.71875 13.511719 9.621094 13.988281 10.558594 C 13.882812 10.65625 13.75 10.765625 13.65625 10.847656 C 13.328125 11.097656 13.03125 11.382812 12.765625 11.699219 L 12.535156 12.023438 L 12.605469 12.417969 C 12.726562 12.957031 12.910156 13.472656 13.160156 13.964844 C 14.054688 15.816406 15.425781 17.195312 17.265625 18.101562 C 17.753906 18.351562 18.265625 18.539062 18.800781 18.660156 L 19.191406 18.730469 L 19.511719 18.5 C 19.828125 18.230469 20.109375 17.933594 20.359375 17.601562 C 20.441406 17.5 20.546875 17.371094 20.640625 17.269531 C 21.574219 17.746094 22.472656 18.28125 23.332031 18.878906 C 22.558594 19.65625 21.722656 20.347656 20.820312 20.964844 Z M 20.820312 20.964844 " fill-opacity="1" fill-rule="nonzero"/></svg>