<svg xmlns="http://www.w3.org/2000/svg" xmlns:xlink="http://www.w3.org/1999/xlink" width="47" zoomAndPan="magnify" viewBox="0 0 35.25 30.000001" height="40" preserveAspectRatio="xMidYMid meet" version="1.0"><path fill="#000000" d="M 16.925781 0 C 16.324219 0 15.726562 0.0390625 15.132812 0.113281 C 14.535156 0.191406 13.949219 0.308594 13.367188 0.464844 C 12.785156 0.617188 12.21875 0.808594 11.664062 1.039062 C 11.105469 1.265625 10.566406 1.53125 10.046875 1.832031 C 9.523438 2.132812 9.023438 2.464844 8.546875 2.828125 C 8.066406 3.195312 7.613281 3.589844 7.1875 4.011719 C 6.757812 4.4375 6.359375 4.890625 5.992188 5.367188 C 5.621094 5.84375 5.285156 6.339844 4.980469 6.863281 C 4.675781 7.382812 4.402344 7.921875 4.167969 8.476562 C 3.933594 9.035156 3.734375 9.605469 3.574219 10.1875 C 3.410156 10.769531 3.289062 11.359375 3.203125 11.957031 C 3.117188 12.558594 3.070312 13.160156 3.0625 13.761719 C 3.054688 14.367188 3.085938 14.96875 3.160156 15.570312 C 3.230469 16.171875 3.335938 16.765625 3.484375 17.351562 C 3.632812 17.9375 3.816406 18.511719 4.039062 19.074219 C 4.257812 19.636719 4.515625 20.179688 4.808594 20.710938 L 3.097656 26.730469 C 3 27.082031 3.078125 27.382812 3.335938 27.640625 C 3.589844 27.902344 3.894531 27.980469 4.242188 27.878906 L 10.21875 26.160156 C 10.679688 26.417969 11.15625 26.644531 11.640625 26.847656 C 12.128906 27.050781 12.625 27.226562 13.132812 27.371094 C 13.640625 27.515625 14.152344 27.632812 14.671875 27.71875 C 15.195312 27.804688 15.71875 27.859375 16.242188 27.886719 C 16.769531 27.914062 17.296875 27.910156 17.820312 27.875 C 18.347656 27.839844 18.871094 27.777344 19.390625 27.683594 C 19.90625 27.589844 20.417969 27.464844 20.925781 27.3125 C 21.429688 27.160156 21.921875 26.976562 22.40625 26.769531 C 22.890625 26.558594 23.363281 26.320312 23.820312 26.058594 C 24.277344 25.792969 24.71875 25.503906 25.140625 25.191406 C 25.566406 24.875 25.972656 24.539062 26.359375 24.175781 C 26.746094 23.816406 27.109375 23.433594 27.453125 23.03125 C 27.792969 22.628906 28.113281 22.207031 28.410156 21.765625 C 28.703125 21.328125 28.972656 20.871094 29.21875 20.402344 C 29.460938 19.929688 29.675781 19.449219 29.867188 18.953125 C 30.054688 18.457031 30.214844 17.953125 30.347656 17.4375 C 30.480469 16.925781 30.582031 16.40625 30.652344 15.878906 C 30.726562 15.355469 30.769531 14.828125 30.78125 14.296875 C 30.796875 13.765625 30.777344 13.234375 30.730469 12.707031 C 30.683594 12.179688 30.609375 11.65625 30.5 11.136719 C 30.394531 10.613281 30.257812 10.101562 30.09375 9.597656 C 29.929688 9.09375 29.738281 8.601562 29.519531 8.121094 C 29.296875 7.636719 29.050781 7.167969 28.777344 6.714844 C 28.503906 6.261719 28.207031 5.824219 27.882812 5.40625 C 27.558594 4.988281 27.214844 4.585938 26.847656 4.207031 C 26.480469 3.828125 26.089844 3.46875 25.679688 3.136719 C 25.273438 2.800781 24.847656 2.488281 24.402344 2.203125 C 23.960938 1.917969 23.5 1.65625 23.027344 1.421875 C 22.554688 1.191406 22.070312 0.984375 21.574219 0.804688 C 21.074219 0.628906 20.570312 0.480469 20.058594 0.359375 C 19.542969 0.242188 19.023438 0.148438 18.5 0.0898438 C 17.976562 0.03125 17.453125 0 16.925781 0 Z M 16.925781 26.054688 C 14.734375 26.050781 12.695312 25.484375 10.8125 24.355469 C 10.582031 24.222656 10.34375 24.191406 10.085938 24.265625 L 5.332031 25.632812 L 6.691406 20.84375 C 6.765625 20.585938 6.734375 20.34375 6.597656 20.113281 C 6.375 19.734375 6.175781 19.34375 5.996094 18.941406 C 5.816406 18.539062 5.65625 18.128906 5.519531 17.710938 C 5.386719 17.289062 5.273438 16.863281 5.183594 16.433594 C 5.09375 16 5.027344 15.566406 4.988281 15.128906 C 4.945312 14.6875 4.925781 14.25 4.933594 13.808594 C 4.9375 13.367188 4.96875 12.929688 5.019531 12.492188 C 5.074219 12.054688 5.152344 11.621094 5.253906 11.191406 C 5.351562 10.761719 5.476562 10.339844 5.621094 9.925781 C 5.769531 9.507812 5.9375 9.101562 6.128906 8.707031 C 6.320312 8.308594 6.53125 7.921875 6.761719 7.550781 C 6.996094 7.175781 7.246094 6.816406 7.519531 6.472656 C 7.789062 6.125 8.078125 5.796875 8.386719 5.480469 C 8.695312 5.167969 9.019531 4.871094 9.359375 4.59375 C 9.695312 4.316406 10.050781 4.054688 10.417969 3.816406 C 10.785156 3.578125 11.164062 3.359375 11.558594 3.160156 C 11.949219 2.964844 12.347656 2.789062 12.761719 2.632812 C 13.171875 2.480469 13.589844 2.351562 14.011719 2.242188 C 14.4375 2.136719 14.867188 2.050781 15.300781 1.992188 C 15.734375 1.933594 16.167969 1.894531 16.609375 1.882812 C 17.046875 1.871094 17.480469 1.882812 17.917969 1.921875 C 18.355469 1.957031 18.789062 2.015625 19.21875 2.101562 C 19.648438 2.183594 20.070312 2.289062 20.488281 2.421875 C 20.910156 2.550781 21.316406 2.703125 21.71875 2.878906 C 22.121094 3.054688 22.511719 3.253906 22.890625 3.472656 C 23.273438 3.691406 23.640625 3.929688 23.992188 4.1875 C 24.347656 4.449219 24.6875 4.726562 25.011719 5.023438 C 25.335938 5.320312 25.640625 5.632812 25.933594 5.960938 C 26.222656 6.292969 26.492188 6.636719 26.746094 7 C 26.996094 7.359375 27.230469 7.730469 27.441406 8.117188 C 27.652344 8.503906 27.84375 8.898438 28.011719 9.304688 C 28.183594 9.714844 28.328125 10.128906 28.453125 10.550781 C 28.574219 10.972656 28.675781 11.402344 28.753906 11.835938 C 28.832031 12.269531 28.882812 12.707031 28.914062 13.148438 C 28.945312 13.585938 28.949219 14.027344 28.929688 14.46875 C 28.914062 14.90625 28.871094 15.347656 28.804688 15.78125 C 28.738281 16.21875 28.652344 16.648438 28.539062 17.074219 C 28.425781 17.5 28.289062 17.917969 28.132812 18.332031 C 27.972656 18.742188 27.792969 19.144531 27.59375 19.535156 C 27.390625 19.925781 27.167969 20.304688 26.925781 20.671875 C 26.683594 21.039062 26.421875 21.390625 26.140625 21.726562 C 25.859375 22.066406 25.558594 22.386719 25.242188 22.691406 C 24.929688 23 24.597656 23.285156 24.25 23.554688 C 23.902344 23.820312 23.539062 24.070312 23.167969 24.300781 C 22.792969 24.527344 22.40625 24.734375 22.011719 24.921875 C 21.613281 25.109375 21.207031 25.273438 20.792969 25.414062 C 20.378906 25.554688 19.957031 25.675781 19.53125 25.769531 C 19.101562 25.863281 18.671875 25.9375 18.234375 25.984375 C 17.800781 26.03125 17.363281 26.054688 16.925781 26.054688 Z M 16.925781 26.054688 " fill-opacity="1" fill-rule="nonzero"/><path fill="#000000" d="M 24.589844 17.15625 C 24.558594 17.132812 21.316406 14.722656 20.21875 14.917969 C 19.664062 15.015625 19.363281 15.375 18.863281 15.972656 C 18.777344 16.078125 18.707031 16.160156 18.644531 16.234375 C 18.484375 16.171875 18.289062 16.089844 18.066406 15.984375 C 16.652344 15.289062 15.601562 14.230469 14.914062 12.808594 C 14.804688 12.582031 14.726562 12.386719 14.664062 12.226562 C 14.738281 12.160156 14.824219 12.089844 14.925781 12.003906 C 15.515625 11.503906 15.875 11.203125 15.972656 10.640625 C 16.164062 9.542969 13.773438 6.269531 13.75 6.242188 C 13.449219 5.832031 13.050781 5.617188 12.546875 5.589844 C 11.402344 5.589844 8.617188 9.152344 8.617188 9.988281 C 8.617188 10.128906 8.664062 13.585938 12.949219 17.980469 C 17.296875 22.277344 20.730469 22.332031 20.871094 22.332031 C 21.699219 22.332031 25.242188 19.523438 25.242188 18.371094 C 25.21875 17.859375 25 17.457031 24.589844 17.15625 Z M 20.734375 20.453125 C 20.082031 20.371094 17.476562 19.851562 14.253906 16.660156 C 11.058594 13.386719 10.550781 10.753906 10.476562 10.125 C 11.070312 9.238281 11.746094 8.414062 12.496094 7.65625 C 13.078125 8.503906 13.597656 9.386719 14.0625 10.300781 C 13.957031 10.394531 13.828125 10.5 13.738281 10.582031 C 13.417969 10.828125 13.128906 11.105469 12.871094 11.414062 L 12.644531 11.730469 L 12.710938 12.113281 C 12.828125 12.640625 13.011719 13.144531 13.253906 13.621094 C 14.128906 15.433594 15.464844 16.777344 17.261719 17.660156 C 17.738281 17.902344 18.238281 18.085938 18.761719 18.207031 L 19.144531 18.273438 L 19.457031 18.046875 C 19.765625 17.785156 20.039062 17.496094 20.285156 17.171875 C 20.363281 17.074219 20.46875 16.949219 20.558594 16.847656 C 21.472656 17.3125 22.347656 17.835938 23.1875 18.417969 C 22.433594 19.175781 21.617188 19.851562 20.734375 20.453125 Z M 20.734375 20.453125 " fill-opacity="1" fill-rule="nonzero"/></svg>