<svg xmlns="http://www.w3.org/2000/svg" xmlns:xlink="http://www.w3.org/1999/xlink" width="47" zoomAndPan="magnify" viewBox="0 0 35.25 30.000001" height="40" preserveAspectRatio="xMidYMid meet" version="1.0"><defs><clipPath id="id1"><path d="M 0.207031 1.597656 L 34.320312 1.597656 L 34.320312 27.726562 L 0.207031 27.726562 Z M 0.207031 1.597656 " clip-rule="nonzero"/></clipPath></defs><path fill="#ffaa00" d="M 22.511719 13.117188 L 14.976562 8.945312 C 14.542969 8.707031 14.03125 8.714844 13.605469 8.96875 C 13.183594 9.226562 12.929688 9.675781 12.929688 10.175781 L 12.929688 18.445312 C 12.929688 18.941406 13.179688 19.390625 13.601562 19.644531 C 13.824219 19.777344 14.066406 19.84375 14.3125 19.84375 C 14.535156 19.84375 14.761719 19.789062 14.96875 19.675781 L 22.503906 15.578125 C 22.949219 15.335938 23.230469 14.863281 23.230469 14.351562 C 23.234375 13.835938 22.957031 13.363281 22.511719 13.117188 Z M 14.925781 17.402344 L 14.925781 11.222656 L 20.558594 14.339844 Z M 14.925781 17.402344 " fill-opacity="1" fill-rule="nonzero"/><g clip-path="url(#id1)"><path fill="#ffaa00" d="M 34.066406 7.761719 L 34.0625 7.746094 C 34.035156 7.46875 33.746094 5 32.558594 3.742188 C 31.1875 2.265625 29.632812 2.085938 28.882812 2 C 28.824219 1.992188 28.765625 1.988281 28.714844 1.980469 L 28.65625 1.972656 C 24.144531 1.640625 17.335938 1.597656 17.269531 1.597656 L 17.257812 1.597656 C 17.1875 1.597656 10.378906 1.640625 5.828125 1.972656 L 5.769531 1.980469 C 5.71875 1.984375 5.667969 1.992188 5.609375 2 C 4.867188 2.085938 3.328125 2.265625 1.953125 3.796875 C 0.824219 5.039062 0.496094 7.457031 0.460938 7.726562 L 0.457031 7.761719 C 0.449219 7.878906 0.207031 10.628906 0.207031 13.390625 L 0.207031 15.972656 C 0.207031 18.734375 0.449219 21.484375 0.457031 21.601562 L 0.460938 21.617188 C 0.488281 21.890625 0.777344 24.316406 1.957031 25.570312 C 3.25 27 4.878906 27.1875 5.757812 27.289062 C 5.894531 27.304688 6.015625 27.320312 6.097656 27.335938 L 6.175781 27.34375 C 8.78125 27.597656 16.941406 27.71875 17.289062 27.722656 L 17.300781 27.726562 L 17.308594 27.722656 C 17.378906 27.722656 24.1875 27.679688 28.695312 27.347656 L 28.757812 27.339844 C 28.8125 27.332031 28.875 27.328125 28.945312 27.320312 C 29.683594 27.238281 31.214844 27.078125 32.570312 25.566406 C 33.699219 24.324219 34.027344 21.90625 34.0625 21.632812 L 34.066406 21.597656 C 34.074219 21.484375 34.316406 18.734375 34.316406 15.972656 L 34.316406 13.390625 C 34.316406 10.628906 34.074219 7.878906 34.066406 7.761719 Z M 32.316406 15.972656 C 32.316406 18.527344 32.097656 21.160156 32.074219 21.402344 C 31.992188 22.066406 31.644531 23.597656 31.09375 24.203125 C 30.246094 25.148438 29.375 25.242188 28.738281 25.308594 C 28.660156 25.316406 28.589844 25.324219 28.523438 25.332031 C 24.164062 25.652344 17.609375 25.699219 17.308594 25.703125 C 16.96875 25.699219 8.925781 25.574219 6.402344 25.335938 C 6.273438 25.316406 6.132812 25.296875 5.984375 25.28125 C 5.238281 25.195312 4.214844 25.078125 3.429688 24.203125 L 3.410156 24.183594 C 2.867188 23.613281 2.535156 22.179688 2.449219 21.410156 C 2.433594 21.226562 2.207031 18.5625 2.207031 15.972656 L 2.207031 13.390625 C 2.207031 10.835938 2.425781 8.207031 2.449219 7.960938 C 2.550781 7.175781 2.902344 5.742188 3.429688 5.160156 C 4.304688 4.1875 5.226562 4.078125 5.835938 4.007812 C 5.894531 4 5.949219 3.992188 6 3.988281 C 10.425781 3.667969 17.023438 3.621094 17.261719 3.617188 C 17.5 3.617188 24.097656 3.667969 28.480469 3.988281 C 28.535156 3.996094 28.59375 4 28.65625 4.007812 C 29.285156 4.082031 30.234375 4.191406 31.105469 5.128906 L 31.113281 5.140625 C 31.65625 5.710938 31.988281 7.164062 32.074219 7.953125 C 32.089844 8.125 32.316406 10.792969 32.316406 13.390625 Z M 32.316406 15.972656 " fill-opacity="1" fill-rule="nonzero"/></g></svg>