<svg xmlns="http://www.w3.org/2000/svg" xmlns:xlink="http://www.w3.org/1999/xlink" width="47" zoomAndPan="magnify" viewBox="0 0 35.25 30.000001" height="40" preserveAspectRatio="xMidYMid meet" version="1.0"><defs><clipPath id="id1"><path d="M 0.207031 1.609375 L 34.320312 1.609375 L 34.320312 27.738281 L 0.207031 27.738281 Z M 0.207031 1.609375 " clip-rule="nonzero"/></clipPath></defs><path fill="#f5deb3" d="M 22.511719 13.128906 L 14.976562 8.960938 C 14.542969 8.71875 14.03125 8.730469 13.605469 8.984375 C 13.183594 9.238281 12.929688 9.6875 12.929688 10.1875 L 12.929688 18.457031 C 12.929688 18.953125 13.179688 19.402344 13.601562 19.65625 C 13.824219 19.789062 14.066406 19.859375 14.3125 19.859375 C 14.535156 19.859375 14.761719 19.800781 14.96875 19.6875 L 22.503906 15.589844 C 22.949219 15.347656 23.230469 14.875 23.230469 14.363281 C 23.234375 13.847656 22.957031 13.375 22.511719 13.128906 Z M 14.925781 17.414062 L 14.925781 11.234375 L 20.558594 14.351562 Z M 14.925781 17.414062 " fill-opacity="1" fill-rule="nonzero"/><g clip-path="url(#id1)"><path fill="#f5deb3" d="M 34.066406 7.773438 L 34.0625 7.757812 C 34.035156 7.480469 33.746094 5.011719 32.558594 3.753906 C 31.1875 2.277344 29.632812 2.097656 28.882812 2.011719 C 28.824219 2.003906 28.765625 2 28.714844 1.992188 L 28.65625 1.984375 C 24.144531 1.652344 17.335938 1.609375 17.269531 1.609375 L 17.257812 1.609375 C 17.1875 1.609375 10.378906 1.652344 5.828125 1.984375 L 5.769531 1.992188 C 5.71875 2 5.667969 2.003906 5.609375 2.011719 C 4.867188 2.097656 3.328125 2.277344 1.953125 3.808594 C 0.824219 5.050781 0.496094 7.46875 0.460938 7.738281 L 0.457031 7.773438 C 0.449219 7.890625 0.207031 10.640625 0.207031 13.402344 L 0.207031 15.984375 C 0.207031 18.746094 0.449219 21.496094 0.457031 21.613281 L 0.460938 21.628906 C 0.488281 21.902344 0.777344 24.328125 1.957031 25.585938 C 3.25 27.011719 4.878906 27.199219 5.757812 27.304688 C 5.894531 27.320312 6.015625 27.332031 6.097656 27.347656 L 6.175781 27.359375 C 8.78125 27.609375 16.941406 27.730469 17.289062 27.738281 L 17.308594 27.738281 C 17.378906 27.738281 24.1875 27.691406 28.695312 27.359375 L 28.757812 27.355469 C 28.8125 27.347656 28.875 27.339844 28.945312 27.332031 C 29.683594 27.253906 31.214844 27.089844 32.570312 25.578125 C 33.699219 24.335938 34.027344 21.917969 34.0625 21.648438 L 34.066406 21.613281 C 34.074219 21.496094 34.316406 18.746094 34.316406 15.984375 L 34.316406 13.402344 C 34.316406 10.640625 34.074219 7.890625 34.066406 7.773438 Z M 32.316406 15.984375 C 32.316406 18.539062 32.097656 21.171875 32.074219 21.414062 C 31.992188 22.078125 31.644531 23.609375 31.09375 24.214844 C 30.246094 25.160156 29.375 25.253906 28.738281 25.320312 C 28.660156 25.328125 28.589844 25.335938 28.523438 25.34375 C 24.164062 25.664062 17.609375 25.714844 17.308594 25.714844 C 16.96875 25.710938 8.925781 25.585938 6.402344 25.347656 C 6.273438 25.328125 6.132812 25.3125 5.984375 25.292969 C 5.238281 25.207031 4.214844 25.089844 3.429688 24.214844 L 3.410156 24.195312 C 2.867188 23.625 2.535156 22.195312 2.449219 21.421875 C 2.433594 21.238281 2.207031 18.574219 2.207031 15.984375 L 2.207031 13.402344 C 2.207031 10.851562 2.425781 8.21875 2.449219 7.972656 C 2.550781 7.191406 2.902344 5.753906 3.429688 5.171875 C 4.304688 4.199219 5.226562 4.089844 5.835938 4.019531 C 5.894531 4.011719 5.949219 4.007812 6 4 C 10.425781 3.679688 17.023438 3.632812 17.261719 3.628906 C 17.5 3.632812 24.097656 3.679688 28.480469 4 C 28.535156 4.007812 28.59375 4.015625 28.65625 4.019531 C 29.285156 4.09375 30.234375 4.203125 31.105469 5.144531 L 31.113281 5.152344 C 31.65625 5.722656 31.988281 7.175781 32.074219 7.964844 C 32.089844 8.136719 32.316406 10.804688 32.316406 13.402344 Z M 32.316406 15.984375 " fill-opacity="1" fill-rule="nonzero"/></g></svg>